<svg width="40" height="40" viewBox="0 0 40 40" fill="none" xmlns="http://www.w3.org/2000/svg">
<path d="M20 20C21.8409 20 23.3333 18.5076 23.3333 16.6666C23.3333 14.8257 21.8409 13.3333 20 13.3333C18.159 13.3333 16.6667 14.8257 16.6667 16.6666C16.6667 18.5076 18.159 20 20 20Z" stroke="#5B5B5B" stroke-width="2" stroke-linecap="round" stroke-linejoin="round"/>
<path d="M28.3334 16.6666C28.3581 18.069 28.0009 19.4517 27.3001 20.6666C25.6001 23.5 20.0001 31.6666 20.0001 31.6666C20.0001 31.6666 14.4001 23.5 12.6834 20.6833C11.9855 19.4618 11.634 18.0731 11.6667 16.6666C11.6667 14.4565 12.5447 12.3369 14.1075 10.7741C15.6703 9.21129 17.7899 8.33331 20.0001 8.33331C22.2102 8.33331 24.3298 9.21129 25.8926 10.7741C27.4554 12.3369 28.3334 14.4565 28.3334 16.6666Z" stroke="#5B5B5B" stroke-width="2" stroke-linecap="round" stroke-linejoin="round"/>
</svg>
